<svg width="24" height="24" viewBox="0 0 24 24" fill="none" xmlns="http://www.w3.org/2000/svg">
<path d="M10.2921 16.5216C10.1608 16.5219 10.0308 16.4963 9.90946 16.4461C9.78814 16.396 9.6779 16.3225 9.58508 16.2296L5.34308 11.9866C5.24751 11.8945 5.17125 11.7842 5.11875 11.6622C5.06626 11.5402 5.03858 11.409 5.03734 11.2763C5.03609 11.1435 5.0613 11.0118 5.11149 10.8889C5.16169 10.7659 5.23586 10.6542 5.32969 10.5603C5.42351 10.4663 5.53511 10.392 5.65797 10.3416C5.78083 10.2912 5.91249 10.2658 6.04527 10.2669C6.17805 10.268 6.30928 10.2955 6.43133 10.3478C6.55337 10.4001 6.66376 10.4762 6.75608 10.5716L10.2911 14.1066L16.6561 7.74364C16.8436 7.556 17.098 7.45053 17.3632 7.45044C17.6285 7.45035 17.8829 7.55563 18.0706 7.74314C18.2582 7.93065 18.3637 8.18502 18.3638 8.45029C18.3639 8.71556 18.2586 8.97 18.0711 9.15764L10.9991 16.2296C10.9063 16.3225 10.796 16.396 10.6747 16.4461C10.5534 16.4963 10.4233 16.5219 10.2921 16.5216V16.5216Z" fill="#2FAB73"/>
</svg>
